<mxfile host="app.diagrams.net" modified="2023-05-29T08:00:49.150Z" agent="Mozilla/5.0 (Windows NT 10.0; Win64; x64) AppleWebKit/537.36 (KHTML, like Gecko) Chrome/113.0.0.0 Safari/537.36" etag="icCDSoXImjdfHBV6Vzmm" version="21.2.1" type="device">
  <diagram name="Page-1" id="MxnHqofsfQv2xv2LpxoD">
    <mxGraphModel dx="1985" dy="1095" grid="1" gridSize="10" guides="1" tooltips="1" connect="1" arrows="1" fold="1" page="1" pageScale="1" pageWidth="827" pageHeight="1169" math="0" shadow="0">
      <root>
        <mxCell id="0" />
        <mxCell id="1" parent="0" />
        <mxCell id="q4iGtm8N0rnM6rYLpr4r-25" value="" style="rounded=0;whiteSpace=wrap;html=1;" vertex="1" parent="1">
          <mxGeometry x="1380" y="550" width="400" height="360" as="geometry" />
        </mxCell>
        <mxCell id="q4iGtm8N0rnM6rYLpr4r-5" value="" style="rounded=0;whiteSpace=wrap;html=1;" vertex="1" parent="1">
          <mxGeometry x="260" y="70" width="400" height="360" as="geometry" />
        </mxCell>
        <mxCell id="q4iGtm8N0rnM6rYLpr4r-2" value="&lt;font style=&quot;font-size: 17px;&quot;&gt;Username&lt;/font&gt;" style="rounded=0;whiteSpace=wrap;html=1;" vertex="1" parent="1">
          <mxGeometry x="294" y="150" width="336" height="60" as="geometry" />
        </mxCell>
        <mxCell id="q4iGtm8N0rnM6rYLpr4r-3" value="&lt;font style=&quot;font-size: 17px;&quot;&gt;Password&lt;/font&gt;" style="rounded=0;whiteSpace=wrap;html=1;" vertex="1" parent="1">
          <mxGeometry x="294" y="230" width="336" height="60" as="geometry" />
        </mxCell>
        <mxCell id="q4iGtm8N0rnM6rYLpr4r-34" style="edgeStyle=orthogonalEdgeStyle;rounded=0;orthogonalLoop=1;jettySize=auto;html=1;exitX=1;exitY=0.5;exitDx=0;exitDy=0;" edge="1" parent="1" source="q4iGtm8N0rnM6rYLpr4r-4" target="q4iGtm8N0rnM6rYLpr4r-9">
          <mxGeometry relative="1" as="geometry">
            <Array as="points">
              <mxPoint x="710" y="350" />
              <mxPoint x="710" y="250" />
            </Array>
          </mxGeometry>
        </mxCell>
        <mxCell id="q4iGtm8N0rnM6rYLpr4r-36" style="edgeStyle=orthogonalEdgeStyle;rounded=0;orthogonalLoop=1;jettySize=auto;html=1;exitX=0.5;exitY=1;exitDx=0;exitDy=0;entryX=0.5;entryY=0;entryDx=0;entryDy=0;" edge="1" parent="1" source="q4iGtm8N0rnM6rYLpr4r-4" target="q4iGtm8N0rnM6rYLpr4r-35">
          <mxGeometry relative="1" as="geometry" />
        </mxCell>
        <mxCell id="q4iGtm8N0rnM6rYLpr4r-4" value="&lt;font style=&quot;font-size: 17px;&quot;&gt;LOGIN&lt;/font&gt;" style="rounded=1;whiteSpace=wrap;html=1;" vertex="1" parent="1">
          <mxGeometry x="410" y="320" width="120" height="60" as="geometry" />
        </mxCell>
        <mxCell id="q4iGtm8N0rnM6rYLpr4r-33" style="edgeStyle=orthogonalEdgeStyle;rounded=0;orthogonalLoop=1;jettySize=auto;html=1;exitX=1;exitY=0.5;exitDx=0;exitDy=0;entryX=0;entryY=0.5;entryDx=0;entryDy=0;" edge="1" parent="1" source="q4iGtm8N0rnM6rYLpr4r-9" target="q4iGtm8N0rnM6rYLpr4r-14">
          <mxGeometry relative="1" as="geometry" />
        </mxCell>
        <mxCell id="q4iGtm8N0rnM6rYLpr4r-9" value="" style="rounded=0;whiteSpace=wrap;html=1;" vertex="1" parent="1">
          <mxGeometry x="827" y="70" width="400" height="360" as="geometry" />
        </mxCell>
        <mxCell id="q4iGtm8N0rnM6rYLpr4r-10" value="&lt;font style=&quot;font-size: 18px;&quot;&gt;&lt;b&gt;Welcome Admin&lt;/b&gt;&lt;/font&gt;" style="text;html=1;strokeColor=none;fillColor=none;align=center;verticalAlign=middle;whiteSpace=wrap;rounded=0;" vertex="1" parent="1">
          <mxGeometry x="870" y="200" width="300" height="80" as="geometry" />
        </mxCell>
        <mxCell id="q4iGtm8N0rnM6rYLpr4r-13" value="&lt;p style=&quot;line-height: 1.295; margin-top: 0pt; margin-bottom: 8pt; font-size: 18px;&quot; dir=&quot;ltr&quot;&gt;&lt;/p&gt;&lt;div style=&quot;font-size: 15px;&quot;&gt;&lt;/div&gt;&lt;span style=&quot;font-family: Calibri, sans-serif; background-color: transparent; font-variant-numeric: normal; font-variant-east-asian: normal; font-variant-alternates: normal; vertical-align: baseline;&quot;&gt;&lt;font style=&quot;font-size: 18px;&quot;&gt;Home&amp;nbsp;&lt;span style=&quot;white-space: pre;&quot;&gt;	&lt;/span&gt; Client&lt;span style=&quot;white-space: pre;&quot;&gt;	&lt;/span&gt;User&lt;span style=&quot;white-space: pre;&quot;&gt;	&lt;/span&gt;About&lt;span style=&quot;white-space: pre;&quot;&gt;	&lt;/span&gt;Help&lt;/font&gt;&lt;/span&gt;&lt;p&gt;&lt;/p&gt;&lt;font style=&quot;font-size: 18px;&quot;&gt;&lt;span id=&quot;docs-internal-guid-610a29ac-7fff-7ef5-557a-04ddc8745bf8&quot;&gt;&lt;/span&gt;&lt;/font&gt;" style="text;html=1;strokeColor=none;fillColor=none;align=center;verticalAlign=middle;whiteSpace=wrap;rounded=0;" vertex="1" parent="1">
          <mxGeometry x="827" y="90" width="333" height="50" as="geometry" />
        </mxCell>
        <mxCell id="q4iGtm8N0rnM6rYLpr4r-14" value="" style="rounded=0;whiteSpace=wrap;html=1;" vertex="1" parent="1">
          <mxGeometry x="1380" y="70" width="400" height="360" as="geometry" />
        </mxCell>
        <mxCell id="q4iGtm8N0rnM6rYLpr4r-15" value="Client details" style="swimlane;fontStyle=0;childLayout=stackLayout;horizontal=1;startSize=30;horizontalStack=0;resizeParent=1;resizeParentMax=0;resizeLast=0;collapsible=1;marginBottom=0;whiteSpace=wrap;html=1;" vertex="1" parent="1">
          <mxGeometry x="1404" y="210" width="250" height="120" as="geometry" />
        </mxCell>
        <mxCell id="q4iGtm8N0rnM6rYLpr4r-16" value="client1" style="text;strokeColor=none;fillColor=none;align=left;verticalAlign=middle;spacingLeft=4;spacingRight=4;overflow=hidden;points=[[0,0.5],[1,0.5]];portConstraint=eastwest;rotatable=0;whiteSpace=wrap;html=1;" vertex="1" parent="q4iGtm8N0rnM6rYLpr4r-15">
          <mxGeometry y="30" width="250" height="30" as="geometry" />
        </mxCell>
        <mxCell id="q4iGtm8N0rnM6rYLpr4r-17" value="client2" style="text;strokeColor=none;fillColor=none;align=left;verticalAlign=middle;spacingLeft=4;spacingRight=4;overflow=hidden;points=[[0,0.5],[1,0.5]];portConstraint=eastwest;rotatable=0;whiteSpace=wrap;html=1;" vertex="1" parent="q4iGtm8N0rnM6rYLpr4r-15">
          <mxGeometry y="60" width="250" height="30" as="geometry" />
        </mxCell>
        <mxCell id="q4iGtm8N0rnM6rYLpr4r-18" value="client3" style="text;strokeColor=none;fillColor=none;align=left;verticalAlign=middle;spacingLeft=4;spacingRight=4;overflow=hidden;points=[[0,0.5],[1,0.5]];portConstraint=eastwest;rotatable=0;whiteSpace=wrap;html=1;" vertex="1" parent="q4iGtm8N0rnM6rYLpr4r-15">
          <mxGeometry y="90" width="250" height="30" as="geometry" />
        </mxCell>
        <mxCell id="q4iGtm8N0rnM6rYLpr4r-23" value="&lt;p style=&quot;line-height: 1.295; margin-top: 0pt; margin-bottom: 8pt; font-size: 18px;&quot; dir=&quot;ltr&quot;&gt;&lt;/p&gt;&lt;div style=&quot;font-size: 15px;&quot;&gt;&lt;/div&gt;&lt;span style=&quot;font-family: Calibri, sans-serif; background-color: transparent; font-variant-numeric: normal; font-variant-east-asian: normal; font-variant-alternates: normal; vertical-align: baseline;&quot;&gt;&lt;font style=&quot;font-size: 18px;&quot;&gt;Home&amp;nbsp;&lt;span style=&quot;white-space: pre;&quot;&gt;	&lt;/span&gt; Client&lt;span style=&quot;white-space: pre;&quot;&gt;	&lt;/span&gt;User&lt;span style=&quot;white-space: pre;&quot;&gt;	&lt;/span&gt;About&lt;span style=&quot;white-space: pre;&quot;&gt;	&lt;/span&gt;Help&lt;/font&gt;&lt;/span&gt;&lt;p&gt;&lt;/p&gt;&lt;font style=&quot;font-size: 18px;&quot;&gt;&lt;span id=&quot;docs-internal-guid-610a29ac-7fff-7ef5-557a-04ddc8745bf8&quot;&gt;&lt;/span&gt;&lt;/font&gt;" style="text;html=1;strokeColor=none;fillColor=none;align=center;verticalAlign=middle;whiteSpace=wrap;rounded=0;" vertex="1" parent="1">
          <mxGeometry x="1390" y="90" width="333" height="50" as="geometry" />
        </mxCell>
        <mxCell id="q4iGtm8N0rnM6rYLpr4r-24" value="&lt;p style=&quot;line-height: 1.295; margin-top: 0pt; margin-bottom: 8pt; font-size: 18px;&quot; dir=&quot;ltr&quot;&gt;&lt;/p&gt;&lt;div style=&quot;font-size: 15px;&quot;&gt;&lt;/div&gt;&lt;span style=&quot;font-family: Calibri, sans-serif; background-color: transparent; font-variant-numeric: normal; font-variant-east-asian: normal; font-variant-alternates: normal; vertical-align: baseline;&quot;&gt;&lt;font style=&quot;font-size: 18px;&quot;&gt;Home&amp;nbsp;&lt;span style=&quot;white-space: pre;&quot;&gt;	&lt;/span&gt; Client&lt;span style=&quot;white-space: pre;&quot;&gt;	&lt;/span&gt;User&lt;span style=&quot;white-space: pre;&quot;&gt;	&lt;/span&gt;About&lt;span style=&quot;white-space: pre;&quot;&gt;	&lt;/span&gt;Help&lt;/font&gt;&lt;/span&gt;&lt;p&gt;&lt;/p&gt;&lt;font style=&quot;font-size: 18px;&quot;&gt;&lt;span id=&quot;docs-internal-guid-610a29ac-7fff-7ef5-557a-04ddc8745bf8&quot;&gt;&lt;/span&gt;&lt;/font&gt;" style="text;html=1;strokeColor=none;fillColor=none;align=center;verticalAlign=middle;whiteSpace=wrap;rounded=0;" vertex="1" parent="1">
          <mxGeometry x="1400" y="580" width="333" height="50" as="geometry" />
        </mxCell>
        <mxCell id="q4iGtm8N0rnM6rYLpr4r-26" value="&lt;font style=&quot;font-size: 17px;&quot;&gt;View&lt;/font&gt;" style="rounded=1;whiteSpace=wrap;html=1;" vertex="1" parent="1">
          <mxGeometry x="1673" y="245" width="70" height="30" as="geometry" />
        </mxCell>
        <mxCell id="q4iGtm8N0rnM6rYLpr4r-29" value="&lt;font style=&quot;font-size: 17px;&quot;&gt;View&lt;/font&gt;" style="rounded=1;whiteSpace=wrap;html=1;" vertex="1" parent="1">
          <mxGeometry x="1673" y="270" width="70" height="30" as="geometry" />
        </mxCell>
        <mxCell id="q4iGtm8N0rnM6rYLpr4r-31" style="edgeStyle=orthogonalEdgeStyle;rounded=0;orthogonalLoop=1;jettySize=auto;html=1;exitX=0.5;exitY=1;exitDx=0;exitDy=0;entryX=0.5;entryY=0;entryDx=0;entryDy=0;" edge="1" parent="1" source="q4iGtm8N0rnM6rYLpr4r-30" target="q4iGtm8N0rnM6rYLpr4r-25">
          <mxGeometry relative="1" as="geometry">
            <Array as="points">
              <mxPoint x="1708" y="470" />
              <mxPoint x="1580" y="470" />
            </Array>
          </mxGeometry>
        </mxCell>
        <mxCell id="q4iGtm8N0rnM6rYLpr4r-30" value="&lt;font style=&quot;font-size: 17px;&quot;&gt;View&lt;/font&gt;" style="rounded=1;whiteSpace=wrap;html=1;" vertex="1" parent="1">
          <mxGeometry x="1673" y="300" width="70" height="30" as="geometry" />
        </mxCell>
        <mxCell id="q4iGtm8N0rnM6rYLpr4r-32" value="&lt;b&gt;&lt;font style=&quot;font-size: 17px;&quot;&gt;Client Details&lt;/font&gt;&lt;/b&gt;" style="rounded=0;whiteSpace=wrap;html=1;" vertex="1" parent="1">
          <mxGeometry x="1440" y="680" width="270" height="130" as="geometry" />
        </mxCell>
        <mxCell id="q4iGtm8N0rnM6rYLpr4r-35" value="&lt;font style=&quot;font-size: 19px;&quot;&gt;Alert message&lt;/font&gt;" style="rounded=0;whiteSpace=wrap;html=1;" vertex="1" parent="1">
          <mxGeometry x="270" y="570" width="400" height="170" as="geometry" />
        </mxCell>
        <mxCell id="q4iGtm8N0rnM6rYLpr4r-37" value="&lt;font style=&quot;font-size: 17px;&quot;&gt;Unsuccessful&lt;/font&gt;" style="text;html=1;align=center;verticalAlign=middle;resizable=0;points=[];autosize=1;strokeColor=none;fillColor=none;" vertex="1" parent="1">
          <mxGeometry x="480" y="480" width="120" height="30" as="geometry" />
        </mxCell>
        <mxCell id="q4iGtm8N0rnM6rYLpr4r-38" value="&lt;font style=&quot;font-size: 17px;&quot;&gt;Successful&lt;/font&gt;" style="text;html=1;align=center;verticalAlign=middle;resizable=0;points=[];autosize=1;strokeColor=none;fillColor=none;" vertex="1" parent="1">
          <mxGeometry x="685" y="210" width="110" height="30" as="geometry" />
        </mxCell>
        <mxCell id="q4iGtm8N0rnM6rYLpr4r-41" value="&lt;font style=&quot;font-size: 19px;&quot;&gt;&lt;b&gt;LOGIN PAGE&lt;/b&gt;&lt;/font&gt;" style="text;html=1;strokeColor=none;fillColor=none;align=center;verticalAlign=middle;whiteSpace=wrap;rounded=0;" vertex="1" parent="1">
          <mxGeometry x="352" y="100" width="220" height="30" as="geometry" />
        </mxCell>
      </root>
    </mxGraphModel>
  </diagram>
</mxfile>
